<svg width="24" height="22" viewBox="0 0 24 22" fill="none" xmlns="http://www.w3.org/2000/svg">
  <path d="M22.9512 4.66406L14.3467 0.726562C13.8955 0.521484 13.4795 0.37207 13.0986 0.27832C12.7236 0.18457 12.3545 0.140625 11.9912 0.146484C11.6338 0.140625 11.2646 0.18457 10.8838 0.27832C10.5029 0.37207 10.0869 0.521484 9.63574 0.726562L1.04004 4.66406C0.758789 4.78711 0.547852 4.9541 0.407227 5.16504C0.272461 5.37598 0.205078 5.59277 0.205078 5.81543C0.205078 6.04395 0.272461 6.26074 0.407227 6.46582C0.547852 6.6709 0.758789 6.83789 1.04004 6.9668L4.66113 8.61914L10.2246 6.00879C10.1777 5.9502 10.1543 5.88574 10.1543 5.81543C10.1543 5.62793 10.2451 5.46094 10.4268 5.31445C10.6084 5.16797 10.8428 5.05371 11.1299 4.97168C11.417 4.88379 11.7158 4.83984 12.0264 4.83984C12.3428 4.83984 12.6416 4.88379 12.9229 4.97168C13.21 5.05371 13.4414 5.16797 13.6172 5.31445C13.7988 5.46094 13.8896 5.62793 13.8896 5.81543C13.8896 6.00879 13.7988 6.18164 13.6172 6.33398C13.4414 6.48047 13.21 6.59766 12.9229 6.68555C12.6416 6.77344 12.3428 6.81738 12.0264 6.81738C11.7275 6.81738 11.4492 6.7793 11.1914 6.70312L5.88281 9.19043L9.63574 10.9131C10.0928 11.1182 10.5088 11.2676 10.8838 11.3613C11.2646 11.4551 11.6338 11.499 11.9912 11.4932C12.3545 11.499 12.7236 11.4551 13.0986 11.3613C13.4795 11.2676 13.8955 11.1182 14.3467 10.9131L22.9512 6.9668C23.2324 6.83789 23.4404 6.6709 23.5752 6.46582C23.7158 6.26074 23.7861 6.04395 23.7861 5.81543C23.7861 5.59277 23.7158 5.37598 23.5752 5.16504C23.4404 4.9541 23.2324 4.78711 22.9512 4.66406ZM5.84766 10.4912V15.835C6.58594 16.2861 7.47363 16.6377 8.51074 16.8896C9.55371 17.1475 10.7139 17.2764 11.9912 17.2764C13.2861 17.2764 14.458 17.1475 15.5068 16.8896C16.5557 16.6377 17.4521 16.2861 18.1963 15.835C18.9404 15.3896 19.5117 14.874 19.9102 14.2881C20.3145 13.7021 20.5166 13.0811 20.5166 12.4248V9.40137L14.8477 11.9941C13.8105 12.4688 12.8584 12.7031 11.9912 12.6973C11.1299 12.7031 10.1777 12.4688 9.13477 11.9941L5.84766 10.4912ZM3.47461 9.40137V12.4248C3.47461 12.8057 3.58008 13.2217 3.79102 13.6729C4.00195 14.1182 4.30664 14.543 4.70508 14.9473V9.97266L3.47461 9.40137ZM4.70508 17.874H5.84766V15.835C5.63086 15.7002 5.42578 15.5596 5.23242 15.4131C5.03906 15.2666 4.86328 15.1113 4.70508 14.9473V17.874ZM4.01074 17.9355V20.2471C4.01074 20.5928 4.11328 20.8682 4.31836 21.0732C4.5293 21.2842 4.80762 21.3896 5.15332 21.3896H5.39062C5.73633 21.3896 6.01172 21.2842 6.2168 21.0732C6.42773 20.8682 6.5332 20.5928 6.5332 20.2471V17.9355C6.5332 17.5898 6.42773 17.3115 6.2168 17.1006C6.01172 16.8955 5.73633 16.793 5.39062 16.793H5.15332C4.80762 16.793 4.5293 16.8955 4.31836 17.1006C4.11328 17.3115 4.01074 17.5898 4.01074 17.9355Z" fill="#1A1A1A"/>
</svg>