<svg width="18" height="20" viewBox="0 0 18 20" fill="none" xmlns="http://www.w3.org/2000/svg">
  <path d="M5.69531 3.31738C5.69531 3.83301 5.80078 4.31055 6.01172 4.75C6.22852 5.18945 6.52441 5.56445 6.89941 5.875C7.27441 6.18555 7.69922 6.39941 8.17383 6.5166V12.0801C8.17383 12.7305 8.2002 13.3047 8.25293 13.8027C8.30566 14.3008 8.37305 14.7197 8.45508 15.0596C8.53711 15.3994 8.625 15.6572 8.71875 15.833C8.8125 16.0029 8.90332 16.0879 8.99121 16.0879C9.0791 16.0879 9.16992 16.0029 9.26367 15.833C9.36328 15.6572 9.45117 15.3994 9.52734 15.0596C9.60938 14.7197 9.67676 14.3008 9.72949 13.8027C9.78223 13.3047 9.80859 12.7305 9.80859 12.0801V6.5166C10.2832 6.39941 10.708 6.18555 11.083 5.875C11.458 5.56445 11.7539 5.18945 11.9707 4.75C12.1875 4.31055 12.2959 3.83301 12.2959 3.31738C12.2959 2.70801 12.1465 2.1543 11.8477 1.65625C11.5547 1.15234 11.1592 0.750977 10.6611 0.452148C10.1631 0.15332 9.60645 0.00390625 8.99121 0.00390625C8.38184 0.00390625 7.82812 0.15332 7.33008 0.452148C6.83203 0.750977 6.43359 1.15234 6.13477 1.65625C5.8418 2.1543 5.69531 2.70801 5.69531 3.31738ZM8.05078 3.49316C7.75195 3.49316 7.48828 3.38184 7.25977 3.15918C7.03711 2.93066 6.92578 2.66406 6.92578 2.35938C6.92578 2.05469 7.03711 1.79102 7.25977 1.56836C7.48828 1.3457 7.75195 1.23438 8.05078 1.23438C8.36133 1.23438 8.62793 1.3457 8.85059 1.56836C9.07324 1.79102 9.18457 2.05469 9.18457 2.35938C9.18457 2.66406 9.07324 2.93066 8.85059 3.15918C8.62793 3.38184 8.36133 3.49316 8.05078 3.49316ZM9 19.3047C10.3242 19.3047 11.502 19.1992 12.5332 18.9883C13.5703 18.7832 14.4463 18.502 15.1611 18.1445C15.876 17.793 16.418 17.3916 16.7871 16.9404C17.1562 16.4951 17.3408 16.0293 17.3408 15.543C17.3408 15.0801 17.209 14.6553 16.9453 14.2686C16.6875 13.876 16.3389 13.5273 15.8994 13.2227C15.46 12.918 14.9707 12.6602 14.4316 12.4492C13.8984 12.2324 13.3535 12.0684 12.7969 11.957C12.2461 11.8398 11.7275 11.7812 11.2412 11.7812V13.0645C11.6689 13.0703 12.1289 13.1318 12.6211 13.249C13.1191 13.3604 13.5908 13.5156 14.0361 13.7148C14.4814 13.9141 14.8477 14.1514 15.1348 14.4268C15.4219 14.7021 15.5654 15.0039 15.5654 15.332C15.5654 15.7129 15.4014 16.0586 15.0732 16.3691C14.7451 16.6855 14.2852 16.958 13.6934 17.1865C13.1074 17.4209 12.4131 17.5996 11.6104 17.7227C10.8135 17.8516 9.94336 17.916 9 17.916C8.05078 17.916 7.1748 17.8516 6.37207 17.7227C5.5752 17.5996 4.88086 17.4238 4.28906 17.1953C3.70312 16.9668 3.24609 16.6943 2.91797 16.3779C2.5957 16.0615 2.43457 15.7129 2.43457 15.332C2.43457 15.0039 2.5752 14.7021 2.85645 14.4268C3.14355 14.1514 3.50977 13.9141 3.95508 13.7148C4.40039 13.5156 4.87207 13.3604 5.37012 13.249C5.86816 13.1318 6.32812 13.0703 6.75 13.0645V11.7812C6.26953 11.7812 5.75098 11.8398 5.19434 11.957C4.64355 12.0684 4.09863 12.2324 3.55957 12.4492C3.02637 12.6602 2.54004 12.918 2.10059 13.2227C1.66113 13.5273 1.30957 13.876 1.0459 14.2686C0.782227 14.6553 0.650391 15.0801 0.650391 15.543C0.650391 16.0293 0.834961 16.4951 1.2041 16.9404C1.5791 17.3916 2.12402 17.793 2.83887 18.1445C3.55371 18.502 4.42676 18.7832 5.45801 18.9883C6.49512 19.1992 7.67578 19.3047 9 19.3047Z" fill="#1A1A1A"/>
</svg>
