<?xml version="1.0" encoding="utf-8"?>
<!-- Generator: Adobe Illustrator 26.0.0, SVG Export Plug-In . SVG Version: 6.00 Build 0)  -->
<svg version="1.1" id="Layer_1" xmlns="http://www.w3.org/2000/svg" xmlns:xlink="http://www.w3.org/1999/xlink" x="0px" y="0px"
	 viewBox="0 0 1080 481.9" style="enable-background:new 0 0 1080 481.9;" xml:space="preserve">
<style type="text/css">
	.st0{fill:#1A1A1A;}
	.st1{display:none;}
	.st2{display:inline;fill:none;stroke:#000000;stroke-miterlimit:10;}
	.st3{display:inline;fill:none;stroke:#FF0000;stroke-miterlimit:10;}
	.st4{display:inline;fill:none;stroke:#000000;stroke-width:1.2024;stroke-miterlimit:10;}
	.st5{display:inline;}
	.st6{fill:#FF0000;}
</style>
<g id="Layer_1_00000071539177091356884900000013037010213814503578_">
	<g>
		<g>
			<path class="st0" d="M244.6,473.1c-128,0-232.2-104.2-232.2-232.2S116.6,8.8,244.6,8.8s232.2,104.2,232.2,232.2
				S372.7,473.1,244.6,473.1z M244.6,34.3C130.7,34.3,38,127,38,240.9s92.7,206.6,206.6,206.6s206.6-92.7,206.6-206.6
				C451.3,127,358.6,34.3,244.6,34.3z"/>
			<path class="st0" d="M244.6,402.1c-88.9,0-161.2-72.3-161.2-161.2S155.8,79.8,244.6,79.8s161.2,72.3,161.2,161.2
				S333.5,402.1,244.6,402.1z M244.6,105.3c-74.8,0-135.6,60.8-135.6,135.6s60.8,135.6,135.6,135.6s135.6-60.8,135.6-135.6
				S319.4,105.3,244.6,105.3z"/>
			<path class="st0" d="M244.6,331.1c-49.7,0-90.2-40.5-90.2-90.2s40.5-90.2,90.2-90.2s90.2,40.5,90.2,90.2
				C334.8,290.7,294.4,331.1,244.6,331.1z M244.6,176.3c-35.6,0-64.6,29-64.6,64.6s29,64.6,64.6,64.6s64.6-29,64.6-64.6
				S280.3,176.3,244.6,176.3z"/>
		</g>
		<g>
			<path class="st0" d="M569.9,305.4v-128h49c9.3,0,16.9,1.4,23.1,4.3c6.1,2.9,10.7,6.8,13.8,11.8c3.1,5,4.6,10.7,4.6,17
				c0,5.2-1,9.7-3,13.4c-2,3.7-4.7,6.7-8.1,9c-3.4,2.3-7.2,3.9-11.3,4.9v1.2c4.5,0.3,8.9,1.6,13.1,4.2c4.2,2.5,7.6,6.1,10.3,10.7
				c2.7,4.6,4,10.1,4,16.6c0,6.6-1.6,12.6-4.8,17.9c-3.2,5.3-8,9.4-14.5,12.5c-6.5,3-14.6,4.6-24.4,4.6L569.9,305.4L569.9,305.4z
				 M593,231.8H616c4,0,7.6-0.7,10.8-2.2c3.2-1.5,5.7-3.6,7.6-6.3c1.9-2.7,2.8-6,2.8-9.7c0-5-1.7-9-5.2-12.2
				c-3.5-3.2-8.6-4.8-15.5-4.8h-23.4L593,231.8L593,231.8z M593,286H618c8.4,0,14.5-1.6,18.2-4.8c3.7-3.2,5.6-7.4,5.6-12.5
				c0-3.8-0.9-7.2-2.8-10.3c-1.9-3.1-4.5-5.5-8-7.2c-3.5-1.8-7.6-2.7-12.4-2.7H593L593,286L593,286z"/>
			<path class="st0" d="M712.2,305.4c-6.1,0-11.5-1.1-16.4-3.3c-4.9-2.2-8.7-5.4-11.5-9.7c-2.8-4.3-4.2-9.6-4.2-15.9
				c0-5.4,1-9.9,3-13.4c2-3.5,4.7-6.4,8.2-8.5c3.5-2.1,7.4-3.7,11.7-4.8s8.9-1.9,13.5-2.4c5.6-0.6,10.2-1.1,13.7-1.6
				s6.1-1.2,7.7-2.3c1.6-1,2.4-2.6,2.4-4.8v-0.4c0-4.7-1.4-8.4-4.2-10.9c-2.8-2.6-6.8-3.9-12.1-3.9c-5.5,0-9.9,1.2-13.2,3.6
				c-3.2,2.4-5.4,5.3-6.5,8.6l-21.1-3c1.7-5.8,4.4-10.7,8.3-14.7c3.8-3.9,8.5-6.9,14.1-8.9s11.7-3,18.4-3c4.6,0,9.2,0.5,13.8,1.6
				c4.6,1.1,8.8,2.9,12.6,5.3c3.8,2.5,6.8,5.8,9.2,10.1c2.3,4.2,3.5,9.6,3.5,15.9v64.3h-21.8v-13.2h-0.7c-1.4,2.7-3.3,5.2-5.8,7.5
				c-2.5,2.3-5.6,4.2-9.3,5.6S717.2,305.4,712.2,305.4z M718.1,288.8c4.5,0,8.5-0.9,11.8-2.7c3.3-1.8,5.9-4.2,7.7-7.2
				s2.7-6.3,2.7-9.8v-11.3c-0.7,0.6-1.9,1.1-3.6,1.6c-1.7,0.5-3.6,0.9-5.7,1.3c-2.1,0.4-4.1,0.7-6.2,1c-2,0.3-3.8,0.5-5.3,0.7
				c-3.4,0.5-6.4,1.2-9.1,2.3c-2.7,1-4.8,2.5-6.3,4.3c-1.5,1.9-2.3,4.2-2.3,7.2c0,4.2,1.5,7.3,4.6,9.4
				C709.5,287.7,713.4,288.8,718.1,288.8z"/>
			<path class="st0" d="M797.1,201.2c-3.6,0-6.7-1.2-9.3-3.6s-3.8-5.3-3.8-8.7c0-3.4,1.3-6.3,3.9-8.7c2.6-2.4,5.7-3.6,9.3-3.6
				c3.6,0,6.7,1.2,9.2,3.6s3.8,5.3,3.8,8.7c0,3.4-1.3,6.3-3.8,8.7C803.7,200,800.7,201.2,797.1,201.2z M785.7,305.4v-96h22.6v96
				L785.7,305.4L785.7,305.4z"/>
			<path class="st0" d="M831.6,305.4v-96h21.6v16.3h1.1c2-5.5,5.3-9.8,9.9-12.9c4.6-3.1,10.2-4.7,16.6-4.7c6.5,0,12,1.6,16.5,4.7
				c4.5,3.1,7.6,7.4,9.5,12.8h1c2.1-5.3,5.7-9.6,10.8-12.8c5.1-3.2,11.1-4.8,18-4.8c8.8,0,16,2.8,21.6,8.4
				c5.6,5.6,8.4,13.7,8.4,24.4v64.4h-22.7v-60.9c0-6-1.6-10.3-4.8-13.1c-3.2-2.8-7-4.2-11.6-4.2c-5.5,0-9.7,1.7-12.8,5.1
				c-3.1,3.4-4.6,7.8-4.6,13.2v59.9H888v-61.9c0-5-1.5-8.9-4.5-11.9c-3-3-6.9-4.4-11.7-4.4c-3.3,0-6.2,0.8-8.9,2.5s-4.8,4-6.4,6.9
				c-1.6,3-2.4,6.4-2.4,10.4v58.4L831.6,305.4L831.6,305.4z"/>
			<path class="st0" d="M1065.5,232.9l-20.6,2.3c-0.6-2.1-1.6-4-3-5.9c-1.4-1.8-3.4-3.3-5.8-4.4c-2.4-1.1-5.4-1.7-8.9-1.7
				c-4.7,0-8.7,1-11.8,3.1c-3.2,2-4.8,4.7-4.7,7.9c0,2.8,1,5.1,3.1,6.8c2.1,1.8,5.6,3.2,10.5,4.3l16.4,3.5c9.1,2,15.8,5.1,20.3,9.3
				c4.4,4.2,6.7,9.8,6.7,16.7c0,6-1.8,11.4-5.3,16c-3.5,4.6-8.3,8.2-14.5,10.8c-6.2,2.6-13.2,3.9-21.2,3.9
				c-11.7,0-21.2-2.5-28.4-7.4c-7.2-4.9-11.4-11.8-12.8-20.7l22.1-2.1c1,4.3,3.1,7.6,6.4,9.8c3.3,2.2,7.5,3.3,12.7,3.3
				c5.4,0,9.7-1.1,13-3.3c3.3-2.2,4.9-4.9,4.9-8.2c0-2.7-1-5-3.2-6.8s-5.4-3.2-9.8-4.1l-16.4-3.4c-9.2-1.9-16-5.2-20.4-9.7
				c-4.4-4.6-6.6-10.4-6.6-17.3c0-5.9,1.6-11.1,4.8-15.4c3.3-4.4,7.8-7.7,13.7-10.1c5.9-2.4,12.6-3.6,20.3-3.6
				c11.3,0,20.1,2.4,26.6,7.2C1059.9,218.2,1063.9,224.7,1065.5,232.9z"/>
		</g>
	</g>
</g>
<g id="Guides" class="st1">
	<line class="st2" x1="-34.5" y1="193.4" x2="1110.5" y2="193.4"/>
	<line class="st2" x1="-34.5" y1="290.4" x2="1110.5" y2="290.4"/>
	<line class="st3" x1="492" y1="6.4" x2="142" y2="6.4"/>
	<line class="st4" x1="491.5" y1="-106.6" x2="491.5" y2="590.4"/>
	<line class="st4" x1="562.5" y1="-106.6" x2="562.5" y2="590.4"/>
	<line class="st2" x1="-34.5" y1="67.4" x2="1110.5" y2="67.4"/>
	<line class="st2" x1="-34.5" y1="416.4" x2="1110.5" y2="416.4"/>
	<line class="st4" x1="141.5" y1="-106.6" x2="141.5" y2="590.4"/>
	<line class="st4" x1="936.5" y1="-106.6" x2="936.5" y2="590.4"/>
	<line class="st3" x1="562.5" y1="40.4" x2="491.5" y2="40.4"/>
	<g class="st5">
		<path class="st6" d="M300.6-27.8v15.3h-1.4v-13.8h-0.1l-3.6,2.4v-1.5l3.6-2.4L300.6-27.8L300.6-27.8z"/>
		<path class="st6" d="M310-12.3c-1.1,0-2-0.3-2.8-0.9s-1.3-1.5-1.8-2.7s-0.6-2.6-0.6-4.2c0-1.6,0.2-3,0.6-4.2s1-2.1,1.8-2.7
			s1.7-0.9,2.7-0.9s2,0.3,2.7,0.9c0.8,0.6,1.4,1.5,1.8,2.7s0.6,2.6,0.6,4.2c0,1.6-0.2,3.1-0.6,4.2c-0.4,1.2-1,2.1-1.7,2.7
			S311.1-12.3,310-12.3z M310-13.6c1.2,0,2.1-0.6,2.8-1.7c0.7-1.1,1-2.8,1-4.9c0-1.4-0.1-2.6-0.5-3.6s-0.7-1.7-1.3-2.3
			c-0.6-0.5-1.2-0.8-2-0.8c-1.2,0-2.1,0.6-2.8,1.7c-0.7,1.2-1,2.8-1,4.9c0,1.4,0.1,2.6,0.5,3.6s0.7,1.7,1.3,2.2
			C308.5-13.8,309.2-13.6,310-13.6z"/>
		<path class="st6" d="M322.9-12.3c-1.1,0-2-0.3-2.8-0.9s-1.3-1.5-1.8-2.7s-0.6-2.6-0.6-4.2c0-1.6,0.2-3,0.6-4.2s1-2.1,1.8-2.7
			s1.7-0.9,2.7-0.9s2,0.3,2.7,0.9c0.8,0.6,1.4,1.5,1.8,2.7s0.6,2.6,0.6,4.2c0,1.6-0.2,3.1-0.6,4.2c-0.4,1.2-1,2.1-1.7,2.7
			S323.9-12.3,322.9-12.3z M322.9-13.6c1.2,0,2.1-0.6,2.8-1.7c0.7-1.1,1-2.8,1-4.9c0-1.4-0.1-2.6-0.5-3.6s-0.7-1.7-1.3-2.3
			c-0.6-0.5-1.2-0.8-2-0.8c-1.2,0-2.1,0.6-2.8,1.7c-0.7,1.2-1,2.8-1,4.9c0,1.4,0.1,2.6,0.5,3.6s0.7,1.7,1.3,2.2
			C321.4-13.8,322.1-13.6,322.9-13.6z"/>
		<path class="st6" d="M331-24.3V-25c0-0.6,0.1-1.1,0.3-1.5c0.2-0.5,0.5-0.8,1-1.1c0.4-0.3,0.9-0.4,1.5-0.4s1.1,0.1,1.5,0.4
			s0.7,0.6,1,1.1s0.3,1,0.3,1.5v0.7c0,0.6-0.1,1.1-0.3,1.5s-0.5,0.8-1,1.1s-0.9,0.4-1.5,0.4c-0.6,0-1.1-0.1-1.5-0.4
			c-0.4-0.3-0.7-0.6-1-1.1C331.2-23.2,331-23.7,331-24.3z M331.7-12.5l10.5-15.3h1.3l-10.5,15.3H331.7z M332.2-25v0.7
			c0,0.6,0.1,1,0.4,1.4c0.3,0.4,0.7,0.6,1.2,0.6c0.5,0,0.9-0.2,1.2-0.6c0.3-0.4,0.4-0.9,0.4-1.4V-25c0-0.6-0.1-1-0.4-1.4
			s-0.7-0.6-1.2-0.6s-1,0.2-1.2,0.6C332.4-26,332.2-25.5,332.2-25z M338.7-15.4V-16c0-0.6,0.1-1.1,0.3-1.5s0.5-0.8,1-1.1
			c0.4-0.3,0.9-0.4,1.5-0.4s1.1,0.1,1.5,0.4s0.7,0.6,1,1.1s0.3,1,0.3,1.5v0.7c0,0.6-0.1,1.1-0.3,1.5c-0.2,0.5-0.5,0.8-1,1.1
			s-0.9,0.4-1.5,0.4c-0.6,0-1.1-0.1-1.5-0.4s-0.7-0.6-1-1.1C338.9-14.3,338.7-14.8,338.7-15.4z M339.9-16v0.7c0,0.6,0.1,1,0.4,1.4
			c0.3,0.4,0.7,0.6,1.2,0.6c0.5,0,0.9-0.2,1.2-0.6c0.3-0.4,0.4-0.9,0.4-1.4V-16c0-0.6-0.1-1-0.4-1.4s-0.7-0.6-1.2-0.6
			s-1,0.2-1.2,0.6C340-17.1,339.9-16.6,339.9-16z"/>
	</g>
	<g class="st5">
		<path class="st6" d="M510.8,21.4v-1l5-5.6c0.7-0.7,1.2-1.4,1.6-1.9c0.4-0.5,0.7-1,0.9-1.5c0.2-0.4,0.3-0.9,0.3-1.4
			c0-0.6-0.1-1.1-0.4-1.5c-0.3-0.4-0.6-0.8-1.1-1s-1-0.4-1.6-0.4c-0.6,0-1.2,0.1-1.6,0.4c-0.5,0.3-0.8,0.6-1.1,1.1
			c-0.3,0.5-0.4,1-0.4,1.6h-1.3c0-0.9,0.2-1.6,0.6-2.2c0.4-0.6,0.9-1.2,1.6-1.5s1.5-0.6,2.3-0.6c0.8,0,1.6,0.2,2.3,0.5
			c0.7,0.4,1.2,0.9,1.6,1.5s0.6,1.3,0.6,2.1c0,0.6-0.1,1.1-0.3,1.6c-0.2,0.5-0.5,1.1-1,1.8c-0.5,0.6-1.1,1.4-2,2.4l-3.8,4.2v0.1h7.5
			v1.2L510.8,21.4L510.8,21.4z"/>
		<path class="st6" d="M528.3,21.6c-1.1,0-2-0.3-2.8-0.9s-1.3-1.5-1.8-2.7s-0.6-2.6-0.6-4.2c0-1.6,0.2-3,0.6-4.2s1-2.1,1.8-2.7
			s1.7-0.9,2.7-0.9s2,0.3,2.7,0.9c0.8,0.6,1.3,1.5,1.8,2.7s0.6,2.6,0.6,4.2c0,1.6-0.2,3.1-0.6,4.2s-1,2.1-1.7,2.7
			C530.3,21.3,529.4,21.6,528.3,21.6z M528.3,20.4c1.2,0,2.1-0.6,2.8-1.7c0.7-1.1,1-2.8,1-4.9c0-1.4-0.2-2.6-0.5-3.6
			s-0.7-1.7-1.3-2.3c-0.6-0.5-1.2-0.8-2-0.8c-1.2,0-2.1,0.6-2.8,1.7c-0.7,1.2-1,2.8-1,4.9c0,1.4,0.2,2.6,0.5,3.6s0.7,1.7,1.3,2.2
			C526.9,20.1,527.5,20.4,528.3,20.4z"/>
		<path class="st6" d="M536.5,9.7V9c0-0.6,0.1-1.1,0.3-1.5c0.2-0.5,0.5-0.8,1-1.1c0.4-0.3,0.9-0.4,1.5-0.4s1.1,0.1,1.5,0.4
			s0.7,0.6,1,1.1c0.2,0.5,0.3,1,0.3,1.5v0.7c0,0.6-0.1,1.1-0.3,1.5c-0.2,0.5-0.5,0.8-1,1.1s-0.9,0.4-1.5,0.4c-0.6,0-1.1-0.1-1.5-0.4
			c-0.4-0.3-0.7-0.6-1-1.1C536.6,10.7,536.5,10.2,536.5,9.7z M537.2,21.4l10.5-15.3h1.3l-10.5,15.3H537.2z M537.7,9v0.7
			c0,0.6,0.1,1,0.4,1.4c0.3,0.4,0.7,0.6,1.2,0.6c0.5,0,0.9-0.2,1.2-0.6c0.3-0.4,0.4-0.9,0.4-1.4V9c0-0.6-0.1-1-0.4-1.4
			s-0.7-0.6-1.2-0.6s-1,0.2-1.2,0.6C537.8,7.9,537.7,8.4,537.7,9z M544.2,18.6v-0.7c0-0.6,0.1-1.1,0.3-1.5c0.2-0.5,0.5-0.8,1-1.1
			c0.4-0.3,0.9-0.4,1.5-0.4s1.1,0.1,1.5,0.4s0.7,0.6,1,1.1c0.2,0.5,0.3,1,0.3,1.5v0.7c0,0.6-0.1,1.1-0.3,1.5s-0.5,0.8-1,1.1
			c-0.4,0.3-0.9,0.4-1.5,0.4c-0.6,0-1.1-0.1-1.5-0.4s-0.7-0.6-1-1.1S544.2,19.1,544.2,18.6z M545.4,17.9v0.7c0,0.6,0.1,1,0.4,1.4
			c0.3,0.4,0.7,0.6,1.2,0.6c0.5,0,0.9-0.2,1.2-0.6c0.3-0.4,0.4-0.9,0.4-1.4v-0.7c0-0.6-0.1-1-0.4-1.4s-0.7-0.6-1.2-0.6
			s-1,0.2-1.2,0.6C545.5,16.8,545.4,17.3,545.4,17.9z"/>
	</g>
	<line class="st3" x1="141.4" y1="416.5" x2="-34.5" y2="416.4"/>
	<g class="st5">
		<path class="st6" d="M1024.8,483.5l12,19.8l12-19.8h6.2l-14.9,23.2l14.9,23.2h-6.2l-12-19.1l-12,19.1h-6.2l14.7-23.2l-14.7-23.2
			H1024.8z"/>
	</g>
	<g class="st5">
		<path class="st6" d="M1024.8-42.5l12,19.8l12-19.8h6.2l-14.9,23.2L1055,3.9h-6.2l-12-19.1l-12,19.1h-6.2l14.7-23.2l-14.7-23.2
			H1024.8z"/>
	</g>
	<g class="st5">
		<path class="st6" d="M39.8-42.5l12,19.8l12-19.8H70L55.1-19.3L70,3.9h-6.2l-12-19.1l-12,19.1h-6.2l14.7-23.2L33.6-42.5H39.8z"/>
	</g>
	<g class="st5">
		<path class="st6" d="M39.8,483.5l12,19.8l12-19.8H70l-14.9,23.2L70,529.9h-6.2l-12-19.1l-12,19.1h-6.2l14.7-23.2l-14.7-23.2H39.8z
			"/>
	</g>
	<g class="st5">
		<path class="st6" d="M43.8,397.5c-0.8,0-1.6-0.2-2.2-0.5c-0.7-0.3-1.2-0.8-1.5-1.4c-0.4-0.6-0.6-1.3-0.6-2h1.3
			c0,0.8,0.3,1.4,0.9,1.9s1.3,0.8,2.1,0.8c0.7,0,1.2-0.2,1.8-0.5s0.9-0.8,1.2-1.3s0.4-1.2,0.4-1.9c0-0.7-0.2-1.4-0.5-1.9
			s-0.7-1-1.2-1.3c-0.5-0.3-1.1-0.5-1.8-0.5c-0.5,0-1,0.1-1.5,0.2s-0.9,0.4-1.2,0.7l-1.3-0.2l0.9-7.2h7.3v1.2h-6.2l-0.6,5h0.1
			c0.3-0.3,0.7-0.5,1.2-0.7s1-0.3,1.5-0.3c0.9,0,1.7,0.2,2.3,0.6c0.7,0.4,1.2,1,1.7,1.7c0.4,0.7,0.6,1.6,0.6,2.5
			c0,0.9-0.2,1.8-0.6,2.5s-1,1.3-1.7,1.7C45.5,397.3,44.7,397.5,43.8,397.5z"/>
		<path class="st6" d="M56.2,397.5c-1,0-1.9-0.3-2.7-0.9c-0.7-0.6-1.3-1.5-1.7-2.6c-0.4-1.1-0.6-2.5-0.6-4.1c0-1.6,0.2-3,0.6-4.1
			c0.4-1.1,1-2,1.7-2.6c0.7-0.6,1.6-0.9,2.7-0.9c1,0,1.9,0.3,2.7,0.9c0.7,0.6,1.3,1.5,1.7,2.6c0.4,1.1,0.6,2.5,0.6,4.1
			s-0.2,3-0.6,4.1c-0.4,1.1-1,2-1.7,2.6C58.1,397.2,57.2,397.5,56.2,397.5z M56.2,396.3c1.1,0,2-0.6,2.7-1.7c0.6-1.1,1-2.7,1-4.7
			c0-1.3-0.2-2.5-0.4-3.5c-0.3-1-0.7-1.7-1.2-2.2s-1.2-0.8-2-0.8c-1.1,0-2,0.6-2.7,1.7s-1,2.7-1,4.7c0,1.3,0.1,2.5,0.4,3.5
			c0.3,1,0.7,1.7,1.2,2.2C54.8,396,55.4,396.3,56.2,396.3z"/>
		<path class="st6" d="M64.1,385.9v-0.7c0-0.5,0.1-1,0.3-1.5s0.5-0.8,0.9-1.1c0.4-0.3,0.9-0.4,1.5-0.4c0.6,0,1.1,0.1,1.5,0.4
			s0.7,0.6,0.9,1.1c0.2,0.4,0.3,0.9,0.3,1.5v0.7c0,0.5-0.1,1-0.3,1.5s-0.5,0.8-0.9,1.1c-0.4,0.3-0.9,0.4-1.4,0.4
			c-0.6,0-1.1-0.1-1.5-0.4s-0.7-0.6-0.9-1.1C64.2,387,64.1,386.5,64.1,385.9z M64.8,397.3l10.2-14.8h1.3L66,397.3H64.8z M65.2,385.2
			v0.7c0,0.5,0.1,1,0.4,1.4c0.3,0.4,0.7,0.6,1.2,0.6c0.5,0,0.9-0.2,1.2-0.6c0.3-0.4,0.4-0.8,0.4-1.4v-0.7c0-0.5-0.1-1-0.4-1.4
			s-0.7-0.6-1.2-0.6c-0.5,0-0.9,0.2-1.2,0.6C65.4,384.2,65.2,384.7,65.2,385.2z M71.6,394.5v-0.7c0-0.5,0.1-1,0.3-1.5
			s0.5-0.8,0.9-1.1c0.4-0.3,0.9-0.4,1.5-0.4c0.6,0,1.1,0.1,1.5,0.4c0.4,0.3,0.7,0.6,0.9,1.1c0.2,0.5,0.3,1,0.3,1.5v0.7
			c0,0.5-0.1,1-0.3,1.5s-0.5,0.8-0.9,1.1c-0.4,0.3-0.9,0.4-1.4,0.4c-0.6,0-1.1-0.1-1.5-0.4s-0.7-0.6-0.9-1.1
			C71.7,395.6,71.6,395.1,71.6,394.5z M72.7,393.9v0.7c0,0.5,0.1,1,0.4,1.4c0.3,0.4,0.7,0.6,1.2,0.6c0.5,0,0.9-0.2,1.2-0.6
			c0.3-0.4,0.4-0.8,0.4-1.4v-0.7c0-0.5-0.1-1-0.4-1.4s-0.7-0.6-1.2-0.6c-0.5,0-0.9,0.2-1.2,0.6C72.8,392.9,72.7,393.3,72.7,393.9z"
			/>
	</g>
</g>
</svg>
