<svg width="191" height="64" viewBox="0 0 191 64" fill="none" xmlns="http://www.w3.org/2000/svg">
<g clip-path="url(#clip0_84_88045)">
<path d="M13.2197 63.9966C12.728 63.9966 12.2481 63.9904 11.7603 63.9785C10.7497 63.9649 9.74148 63.8737 8.74382 63.7061C7.81363 63.5395 6.91243 63.2309 6.07009 62.7891C5.23551 62.3513 4.47428 61.777 3.81559 61.0883C3.14736 60.4075 2.59103 59.6185 2.16865 58.752C1.74161 57.8792 1.44607 56.9441 1.29233 55.9791C1.12631 54.942 1.03648 53.8933 1.02363 52.842C1.0134 52.4891 1 51.3143 1 51.3143V12.6644C1 12.6644 1.01427 11.5076 1.02371 11.1677C1.03601 10.1181 1.12532 9.07107 1.29085 8.03551C1.44487 7.06764 1.74064 6.1299 2.16791 5.25464C2.58874 4.38849 3.14198 3.59863 3.80618 2.9157C4.46963 2.22628 5.2333 1.64903 6.06935 1.205C6.90975 0.764772 7.80918 0.457986 8.7375 0.29492C9.7384 0.125209 10.7502 0.0334558 11.7643 0.0204288L13.2205 0H179.073L180.546 0.0212487C181.551 0.0336284 182.553 0.124563 183.545 0.29328C184.483 0.458392 185.392 0.767315 186.242 1.20989C187.916 2.10476 189.279 3.5205 190.139 5.25872C190.56 6.12791 190.851 7.05807 191.003 8.01756C191.17 9.06155 191.264 10.1169 191.283 11.1751C191.288 11.6489 191.288 12.1578 191.288 12.6644C191.301 13.2918 191.301 13.889 191.301 14.4911V49.5071C191.301 50.115 191.301 50.7081 191.288 51.3061C191.288 51.8502 191.288 52.3486 191.282 52.8616C191.263 53.9009 191.171 54.9373 191.006 55.9627C190.855 56.9351 190.561 57.8775 190.135 58.7565C189.709 59.614 189.156 60.3967 188.495 61.0753C187.836 61.7674 187.074 62.3451 186.237 62.7863C185.39 63.2309 184.482 63.5412 183.545 63.7061C182.548 63.8748 181.539 63.966 180.529 63.9785C180.056 63.9904 179.561 63.9966 179.081 63.9966L177.331 64L13.2197 63.9966Z" fill="black"/>
<path d="M100.95 22.6846C99.6794 22.6846 98.6084 22.2365 97.7611 21.3544C96.9206 20.4971 96.4516 19.3152 96.4726 18.1086C96.4726 16.8209 96.907 15.7307 97.7611 14.8663C98.605 13.9842 99.676 13.5361 100.947 13.5361C102.204 13.5361 103.275 13.9842 104.136 14.8663C104.99 15.7589 105.425 16.8491 105.425 18.1086C105.41 19.3999 104.976 20.4901 104.136 21.3509C103.292 22.24 102.221 22.6846 100.95 22.6846ZM63.1371 22.6846C61.8944 22.6846 60.8161 22.2435 59.9342 21.3721C59.0586 20.5042 58.614 19.4069 58.614 18.1121C58.614 16.8173 59.0586 15.7201 59.9342 14.8522C60.7985 13.9807 61.8769 13.5397 63.1371 13.5397C63.7533 13.5397 64.3519 13.6632 64.9262 13.9137C65.4898 14.1571 65.9485 14.4888 66.2884 14.8945L66.3722 14.9968L65.4235 15.9353L65.3255 15.8188C64.7897 15.1767 64.0721 14.8627 63.1235 14.8627C62.2762 14.8627 61.5376 15.1661 60.9282 15.7659C60.3154 16.3692 60.0039 17.1596 60.0039 18.1156C60.0039 19.0718 60.3154 19.8621 60.9282 20.4654C61.5376 21.0651 62.2762 21.3686 63.1235 21.3686C64.0263 21.3686 64.7863 21.0651 65.3776 20.4654C65.7282 20.1126 65.9451 19.6186 66.0222 18.9941H62.9796V17.6746H67.3276L67.3452 17.7946C67.3769 18.0169 67.4086 18.2462 67.4086 18.4579C67.4086 19.6751 67.0445 20.6594 66.3229 21.3862C65.5039 22.2471 64.4329 22.6846 63.1371 22.6846ZM113.413 22.4975H112.073L107.966 15.8753L108.001 17.0678V22.494H106.66V13.7267H108.19L108.232 13.7937L112.094 20.0314L112.059 18.8425V13.7267H113.413V22.4975ZM90.8745 22.4975H89.5164V15.0462H87.1603V13.7267H93.2273V15.0462H90.8712V22.4975H90.8745ZM86.0542 22.4975H84.6994V13.7267H86.0542V22.4975ZM78.4399 22.4975H77.0851V15.0462H74.729V13.7267H80.796V15.0462H78.4399V22.4975ZM73.8709 22.4834H68.6756V13.7267H73.8709V15.0462H70.0338V17.4524H73.4966V18.7578H70.0338V21.164H73.8709V22.4834ZM98.755 20.4477C99.3611 21.0581 100.096 21.365 100.95 21.365C101.829 21.365 102.547 21.0651 103.146 20.4477C103.74 19.8479 104.042 19.0612 104.042 18.1121C104.042 17.1631 103.74 16.3727 103.149 15.7765C102.543 15.1662 101.804 14.8592 100.954 14.8592C100.075 14.8592 99.3577 15.1591 98.7624 15.7765C98.1672 16.3763 97.8658 17.1631 97.8658 18.1121C97.8658 19.0612 98.1638 19.8515 98.755 20.4477Z" fill="white"/>
<path fill-rule="evenodd" clip-rule="evenodd" d="M96.3469 34.7438C93.0382 34.7438 90.357 37.2734 90.357 40.7627C90.357 44.2203 93.0557 46.7817 96.3469 46.7817C99.6551 46.7817 102.337 44.2344 102.337 40.7627C102.337 37.2734 99.6551 34.7438 96.3469 34.7438ZM96.3469 44.3967C94.5368 44.3967 92.9787 42.8866 92.9787 40.7486C92.9787 38.5788 94.5402 37.1006 96.3469 37.1006C98.1565 37.1006 99.7146 38.5788 99.7146 40.7486C99.718 42.9008 98.1565 44.3967 96.3469 44.3967ZM83.2779 34.7438C79.9697 34.7438 77.2879 37.2734 77.2879 40.7627C77.2879 44.2203 79.9873 46.7817 83.2779 46.7817C86.5861 46.7817 89.2678 44.2344 89.2678 40.7627C89.2678 37.2734 86.5827 34.7438 83.2779 34.7438ZM83.2779 44.3967C81.4678 44.3967 79.9102 42.8866 79.9102 40.7486C79.9102 38.5788 81.4717 37.1006 83.2779 37.1006C85.088 37.1006 86.6455 38.5788 86.6455 40.7486C86.6455 42.9008 85.088 44.3967 83.2779 44.3967ZM67.727 36.5819V39.1292H73.794C73.6088 40.5581 73.1393 41.613 72.4217 42.3363C71.5325 43.2324 70.1601 44.2062 67.7412 44.2062C64.0127 44.2062 61.0965 41.172 61.0965 37.4146C61.0965 33.6571 64.0127 30.6229 67.7412 30.6229C69.7541 30.6229 71.221 31.4238 72.3095 32.447L74.1021 30.6406C72.5899 29.1799 70.577 28.0615 67.7553 28.0615C62.6404 28.0615 58.3479 32.26 58.3479 37.4004C58.3479 42.555 62.637 46.7394 67.7553 46.7394C70.5175 46.7394 72.5899 45.8291 74.2284 44.1145C75.8981 42.4316 76.4265 40.0571 76.4265 38.1414C76.4265 37.5451 76.3812 37.0088 76.2866 36.5537H67.7236C67.727 36.5502 67.727 36.5819 67.727 36.5819ZM131.335 38.5647C130.834 37.2135 129.322 34.7296 126.22 34.7296C123.146 34.7296 120.59 37.1676 120.59 40.7486C120.59 44.1286 123.118 46.7676 126.518 46.7676C129.248 46.7676 130.837 45.0847 131.492 44.0968L129.465 42.7279C128.793 43.7334 127.858 44.3932 126.531 44.3932C125.191 44.3932 124.252 43.7793 123.629 42.5691L131.615 39.2351C131.615 39.2386 131.335 38.5647 131.335 38.5647ZM123.191 40.5757C123.128 38.2507 124.984 37.0688 126.311 37.0688C127.357 37.0688 128.229 37.5874 128.527 38.3425L123.191 40.5757ZM116.705 46.4077H119.326V28.7248H116.705V46.4077ZM112.398 36.081H112.304C111.712 35.3718 110.588 34.7296 109.153 34.7296C106.173 34.7296 103.429 37.3722 103.429 40.7663C103.429 44.1462 106.16 46.757 109.153 46.757C110.571 46.757 111.712 46.1113 112.304 45.3881H112.398V46.2525C112.398 48.5493 111.18 49.7877 109.216 49.7877C107.609 49.7877 106.611 48.6234 106.205 47.6496L103.926 48.6093C104.581 50.1969 106.328 52.1621 109.213 52.1621C112.286 52.1621 114.891 50.3381 114.891 45.8891V35.0895H112.412V36.081C112.416 36.081 112.398 36.081 112.398 36.081ZM109.388 44.3967C107.577 44.3967 106.065 42.8725 106.065 40.7663C106.065 38.6424 107.577 37.1041 109.388 37.1041C111.18 37.1041 112.57 38.66 112.57 40.7663C112.587 42.8725 111.184 44.3967 109.388 44.3967ZM143.612 28.7248H137.342V46.4077H139.964V39.7114H143.616C146.518 39.7114 149.371 37.591 149.371 34.2252C149.371 30.8593 146.529 28.7248 143.612 28.7248ZM143.689 37.2417H139.961V31.1733H143.689C145.653 31.1733 146.763 32.8069 146.763 34.2075C146.763 35.594 145.639 37.2417 143.689 37.2417ZM159.881 34.712C157.976 34.712 156.012 35.5623 155.2 37.4146L157.525 38.3883C158.025 37.4146 158.942 37.0829 159.912 37.0829C161.271 37.0829 162.643 37.9014 162.675 39.3621V39.5491C162.205 39.281 161.176 38.8717 159.944 38.8717C157.433 38.8717 154.888 40.2547 154.888 42.8478C154.888 45.2223 156.947 46.7464 159.24 46.7464C161.001 46.7464 161.971 45.9456 162.576 45.0177H162.671V46.3865H165.198V39.6126C165.198 36.4584 162.874 34.712 159.881 34.712ZM159.552 44.3967C158.694 44.3967 157.493 43.9733 157.493 42.8866C157.493 41.5178 158.992 40.9992 160.269 40.9992C161.425 40.9992 161.971 41.2496 162.657 41.5954C162.468 43.183 161.138 44.3826 159.552 44.3967ZM174.42 35.0895L171.409 42.7597H171.315L168.195 35.0895H165.373L170.055 45.8115L167.386 51.7705H170.117L177.319 35.0895H174.42ZM150.817 46.4077H153.439V28.7248H150.817V46.4077Z" fill="white"/>
<path fill-rule="evenodd" clip-rule="evenodd" d="M15.3467 14.6231C14.9406 15.0641 14.7061 15.7379 14.7061 16.62V47.9038C14.7061 48.7858 14.9406 49.4597 15.3607 49.883L15.4692 49.9783L32.8616 32.4506V32.059L15.4553 14.5278L15.3467 14.6231Z" fill="url(#paint0_linear_84_88045)"/>
<path fill-rule="evenodd" clip-rule="evenodd" d="M38.6486 38.3109L32.8477 32.4648V32.0555L38.6486 26.2095L38.7747 26.2871L45.6364 30.2174C47.6004 31.3322 47.6004 33.1739 45.6364 34.3029L38.7747 38.2333L38.6486 38.3109Z" fill="url(#paint1_linear_84_88045)"/>
<path fill-rule="evenodd" clip-rule="evenodd" d="M38.7746 38.2328L32.8476 32.2598L15.3467 49.8968C15.9874 50.5883 17.0621 50.6659 18.2629 49.992L38.7746 38.2328Z" fill="url(#paint2_linear_84_88045)"/>
<path fill-rule="evenodd" clip-rule="evenodd" d="M38.7746 26.2873L18.2629 14.5457C17.0621 13.8542 15.9838 13.9495 15.3467 14.641L32.8476 32.2604L38.7746 26.2873Z" fill="url(#paint3_linear_84_88045)"/>
<path opacity="0.2" fill-rule="evenodd" clip-rule="evenodd" d="M38.6489 38.106L18.2773 49.7699C17.1395 50.4296 16.1243 50.3838 15.4696 49.784L15.3611 49.8934L15.4696 49.9887C16.1243 50.5849 17.1395 50.6343 18.2773 49.9746L38.789 38.233L38.6489 38.106Z" fill="black"/>
<path opacity="0.12" fill-rule="evenodd" clip-rule="evenodd" d="M45.6363 34.0979L38.6311 38.1059L38.7571 38.2328L45.6188 34.3025C46.6026 33.7381 47.0857 32.9971 47.0857 32.2598C47.0262 32.9371 46.5256 33.5792 45.6363 34.0979Z" fill="black"/>
<path opacity="0.25" fill-rule="evenodd" clip-rule="evenodd" d="M18.2629 14.7502L45.6363 30.422C46.5256 30.9265 47.0262 31.5863 47.1032 32.2602C47.1032 31.5228 46.6201 30.7819 45.6363 30.2174L18.2629 14.5455C16.2989 13.413 14.7061 14.3585 14.7061 16.62V16.8247C14.7061 14.5596 16.2989 13.6318 18.2629 14.7502Z" fill="white"/>
</g>
<defs>
<linearGradient id="paint0_linear_84_88045" x1="31.3015" y1="16.2825" x2="3.41353" y2="23.6559" gradientUnits="userSpaceOnUse">
<stop stop-color="#00A0FF"/>
<stop offset="0.00657" stop-color="#00A1FF"/>
<stop offset="0.2601" stop-color="#00BEFF"/>
<stop offset="0.5122" stop-color="#00D2FF"/>
<stop offset="0.7604" stop-color="#00DFFF"/>
<stop offset="1" stop-color="#00E3FF"/>
</linearGradient>
<linearGradient id="paint1_linear_84_88045" x1="48.1976" y1="32.2602" x2="14.2288" y2="32.2602" gradientUnits="userSpaceOnUse">
<stop stop-color="#FFE000"/>
<stop offset="0.4087" stop-color="#FFBD00"/>
<stop offset="0.7754" stop-color="#FFA500"/>
<stop offset="1" stop-color="#FF9C00"/>
</linearGradient>
<linearGradient id="paint2_linear_84_88045" x1="35.5517" y1="35.5099" x2="12.9291" y2="73.2922" gradientUnits="userSpaceOnUse">
<stop stop-color="#FF3A44"/>
<stop offset="1" stop-color="#C31162"/>
</linearGradient>
<linearGradient id="paint3_linear_84_88045" x1="10.9397" y1="4.21786" x2="21.0327" y2="21.092" gradientUnits="userSpaceOnUse">
<stop stop-color="#32A071"/>
<stop offset="0.0685" stop-color="#2DA771"/>
<stop offset="0.4762" stop-color="#15CF74"/>
<stop offset="0.8009" stop-color="#06E775"/>
<stop offset="1" stop-color="#00F076"/>
</linearGradient>
<clipPath id="clip0_84_88045">
<rect width="190.301" height="64" fill="white" transform="translate(0.699219)"/>
</clipPath>
</defs>
</svg>
