<svg width="8" height="14" viewBox="0 0 8 14" fill="none" xmlns="http://www.w3.org/2000/svg">
  <path d="M7.81934 7C7.81934 6.90104 7.7985 6.8099 7.75684 6.72656C7.72038 6.63802 7.66569 6.55729 7.59277 6.48438L1.40527 0.421875C1.26465 0.286458 1.09277 0.21875 0.889648 0.21875C0.75944 0.21875 0.639648 0.25 0.530273 0.3125C0.420898 0.375 0.334961 0.460938 0.272461 0.570312C0.209961 0.674479 0.178711 0.794271 0.178711 0.929688C0.178711 1.1224 0.246419 1.29167 0.381836 1.4375L6.06934 7L0.381836 12.5625C0.246419 12.7083 0.178711 12.8776 0.178711 13.0703C0.178711 13.2057 0.209961 13.3255 0.272461 13.4297C0.334961 13.5391 0.420898 13.625 0.530273 13.6875C0.639648 13.75 0.75944 13.7812 0.889648 13.7812C1.09277 13.7812 1.26465 13.7109 1.40527 13.5703L7.59277 7.51562C7.66569 7.44271 7.72038 7.36458 7.75684 7.28125C7.7985 7.19271 7.81934 7.09896 7.81934 7Z" fill="#1A1A1A"/>
</svg>