<svg width="20" height="19" viewBox="0 0 20 19" fill="none" xmlns="http://www.w3.org/2000/svg">
  <path d="M0.542969 18.1094C0.542969 18.3027 0.610352 18.4697 0.745117 18.6104C0.885742 18.751 1.05273 18.8213 1.24609 18.8213H18.7363C18.9297 18.8213 19.0967 18.751 19.2373 18.6104C19.3779 18.4697 19.4482 18.3027 19.4482 18.1094C19.4482 17.916 19.3779 17.749 19.2373 17.6084C19.0967 17.4736 18.9297 17.4062 18.7363 17.4062H1.24609C1.05273 17.4062 0.885742 17.4736 0.745117 17.6084C0.610352 17.749 0.542969 17.916 0.542969 18.1094ZM2.08105 8.0459C2.08105 8.22168 2.12793 8.35938 2.22168 8.45898C2.32129 8.55859 2.46191 8.6084 2.64355 8.6084H4.89355C5.0752 8.6084 5.21582 8.55859 5.31543 8.45898C5.41504 8.35938 5.46484 8.22168 5.46484 8.0459V7.83496C5.46484 7.66504 5.41504 7.53027 5.31543 7.43066C5.21582 7.33105 5.0752 7.28125 4.89355 7.28125H2.64355C2.46191 7.28125 2.32129 7.33105 2.22168 7.43066C2.12793 7.53027 2.08105 7.66504 2.08105 7.83496V8.0459ZM3.10938 15.5605H4.43652V8.13379H3.10938V15.5605ZM2.08105 16.0703C2.08105 16.252 2.12793 16.3896 2.22168 16.4834C2.32129 16.583 2.46191 16.6328 2.64355 16.6328H4.89355C5.0752 16.6328 5.21582 16.583 5.31543 16.4834C5.41504 16.3896 5.46484 16.252 5.46484 16.0703V15.8594C5.46484 15.6895 5.41504 15.5547 5.31543 15.4551C5.21582 15.3555 5.0752 15.3057 4.89355 15.3057H2.64355C2.46191 15.3057 2.32129 15.3555 2.22168 15.4551C2.12793 15.5547 2.08105 15.6895 2.08105 15.8594V16.0703ZM6.25586 8.0459C6.25586 8.22168 6.30566 8.35938 6.40527 8.45898C6.50488 8.55859 6.64258 8.6084 6.81836 8.6084H9.07715C9.25293 8.6084 9.39062 8.55859 9.49023 8.45898C9.58984 8.35938 9.63965 8.22168 9.63965 8.0459V7.83496C9.63965 7.66504 9.58984 7.53027 9.49023 7.43066C9.39062 7.33105 9.25293 7.28125 9.07715 7.28125H6.81836C6.64258 7.28125 6.50488 7.33105 6.40527 7.43066C6.30566 7.53027 6.25586 7.66504 6.25586 7.83496V8.0459ZM7.29297 15.5605H8.62012V8.13379H7.29297V15.5605ZM6.25586 16.0703C6.25586 16.252 6.30566 16.3896 6.40527 16.4834C6.50488 16.583 6.64258 16.6328 6.81836 16.6328H9.07715C9.25293 16.6328 9.39062 16.583 9.49023 16.4834C9.58984 16.3896 9.63965 16.252 9.63965 16.0703V15.8594C9.63965 15.6895 9.58984 15.5547 9.49023 15.4551C9.39062 15.3555 9.25293 15.3057 9.07715 15.3057H6.81836C6.64258 15.3057 6.50488 15.3555 6.40527 15.4551C6.30566 15.5547 6.25586 15.6895 6.25586 15.8594V16.0703ZM10.4395 8.0459C10.4395 8.22168 10.4893 8.35938 10.5889 8.45898C10.6885 8.55859 10.8262 8.6084 11.002 8.6084H13.2607C13.4365 8.6084 13.5742 8.55859 13.6738 8.45898C13.7734 8.35938 13.8232 8.22168 13.8232 8.0459V7.83496C13.8232 7.66504 13.7734 7.53027 13.6738 7.43066C13.5742 7.33105 13.4365 7.28125 13.2607 7.28125H11.002C10.8262 7.28125 10.6885 7.33105 10.5889 7.43066C10.4893 7.53027 10.4395 7.66504 10.4395 7.83496V8.0459ZM11.4766 15.5605H12.8037V8.13379H11.4766V15.5605ZM10.4395 16.0703C10.4395 16.252 10.4893 16.3896 10.5889 16.4834C10.6885 16.583 10.8262 16.6328 11.002 16.6328H13.2607C13.4365 16.6328 13.5742 16.583 13.6738 16.4834C13.7734 16.3896 13.8232 16.252 13.8232 16.0703V15.8594C13.8232 15.6895 13.7734 15.5547 13.6738 15.4551C13.5742 15.3555 13.4365 15.3057 13.2607 15.3057H11.002C10.8262 15.3057 10.6885 15.3555 10.5889 15.4551C10.4893 15.5547 10.4395 15.6895 10.4395 15.8594V16.0703ZM14.623 8.0459C14.623 8.22168 14.6699 8.35938 14.7637 8.45898C14.8633 8.55859 15.0039 8.6084 15.1855 8.6084H17.4355C17.6172 8.6084 17.7549 8.55859 17.8486 8.45898C17.9482 8.35938 17.998 8.22168 17.998 8.0459V7.83496C17.998 7.66504 17.9482 7.53027 17.8486 7.43066C17.7549 7.33105 17.6172 7.28125 17.4355 7.28125H15.1855C15.0039 7.28125 14.8633 7.33105 14.7637 7.43066C14.6699 7.53027 14.623 7.66504 14.623 7.83496V8.0459ZM15.6514 15.5605H16.9785V8.13379H15.6514V15.5605ZM14.623 16.0703C14.623 16.252 14.6699 16.3896 14.7637 16.4834C14.8633 16.583 15.0039 16.6328 15.1855 16.6328H17.4355C17.6172 16.6328 17.7549 16.583 17.8486 16.4834C17.9482 16.3896 17.998 16.252 17.998 16.0703V15.8594C17.998 15.6895 17.9482 15.5547 17.8486 15.4551C17.7549 15.3555 17.6172 15.3057 17.4355 15.3057H15.1855C15.0039 15.3057 14.8633 15.3555 14.7637 15.4551C14.6699 15.5547 14.623 15.6895 14.623 15.8594V16.0703ZM1.70312 6.5166H18.2793C18.5254 6.5166 18.7129 6.44336 18.8418 6.29688C18.9766 6.15039 19.0439 5.98633 19.0439 5.80469C19.0439 5.67578 19.0059 5.55566 18.9297 5.44434C18.8594 5.32715 18.7422 5.22168 18.5781 5.12793L11.0723 0.803711C10.7148 0.598633 10.3545 0.496094 9.99121 0.496094C9.62793 0.496094 9.26758 0.598633 8.91016 0.803711L1.4043 5.12793C1.24023 5.22168 1.12012 5.32715 1.04395 5.44434C0.973633 5.55566 0.938477 5.67578 0.938477 5.80469C0.938477 5.98633 1.00293 6.15039 1.13184 6.29688C1.2666 6.44336 1.45703 6.5166 1.70312 6.5166ZM4.33984 5.10156L9.64844 2.12207C9.77148 2.05762 9.88574 2.02539 9.99121 2.02539C10.0967 2.02539 10.2109 2.05762 10.334 2.12207L15.6426 5.10156H4.33984Z" fill="#1A1A1A"/>
</svg>